<?xml version="1.0" standalone="no"?>
<!DOCTYPE svg PUBLIC "-//W3C//DTD SVG 20010904//EN"
 "http://www.w3.org/TR/2001/REC-SVG-20010904/DTD/svg10.dtd">
<svg version="1.0" xmlns="http://www.w3.org/2000/svg"
 width="350.000000pt" height="505.000000pt" viewBox="0 0 350.000000 505.000000"
 preserveAspectRatio="xMidYMid meet">

<g transform="translate(0.000000,505.000000) scale(0.100000,-0.100000)"
fill="#000000" stroke="none">
<path d="M0 2520 l0 -2520 1745 0 1745 0 -2 2518 -3 2517 -1742 3 -1743 2 0
-2520z m2936 1985 c61 -18 146 -73 142 -91 -2 -7 -75 -72 -162 -144 l-159
-130 -747 0 -747 0 -64 77 c-151 181 -189 228 -189 234 0 12 47 37 96 53 73
22 1755 23 1830 1z m-1835 -249 l123 -149 -36 -216 c-33 -194 -122 -698 -148
-841 -51 -277 -47 -263 -82 -295 -53 -47 -195 -166 -215 -180 -16 -11 -25 -4
-81 61 -34 40 -62 82 -62 93 0 10 6 52 14 92 8 41 27 142 41 224 25 143 39
223 84 470 10 61 29 164 40 230 12 66 26 143 31 170 5 28 21 118 36 200 14 83
34 170 45 194 25 57 69 115 79 104 4 -4 63 -75 131 -157z m2053 67 c28 -57 43
-123 40 -168 -4 -54 -15 -121 -73 -445 -27 -151 -77 -432 -111 -625 -34 -192
-63 -355 -65 -362 -5 -15 -186 -165 -196 -161 -4 2 -46 49 -94 106 l-86 103
50 287 c57 324 65 365 85 477 8 44 33 186 56 315 24 129 45 240 49 246 6 11
37 39 151 134 29 25 76 64 104 88 27 23 55 42 61 42 6 0 19 -17 29 -37z m-579
-1640 c38 -41 135 -159 135 -166 0 -3 -49 -46 -110 -96 l-110 -91 -790 0
c-434 0 -790 3 -790 8 0 4 -12 21 -28 37 -53 58 -112 133 -111 141 0 5 50 51
110 102 l110 92 779 0 779 0 26 -27z m-1737 -343 c53 -64 61 -78 57 -105 -5
-30 -165 -947 -185 -1060 -6 -33 -19 -101 -28 -151 l-17 -91 -158 -132 c-177
-149 -172 -147 -207 -53 -30 80 -28 141 13 372 20 113 60 336 88 495 29 160
68 382 88 495 l37 204 94 83 95 83 30 -33 c17 -18 58 -66 93 -107z m1975 52
l60 -72 -57 -328 c-32 -180 -64 -363 -72 -407 -8 -44 -19 -105 -24 -135 -5
-30 -16 -91 -24 -135 -8 -44 -33 -183 -56 -310 -45 -255 -58 -301 -103 -352
l-30 -34 -42 48 c-23 26 -82 96 -131 155 l-90 108 57 322 c32 178 65 366 74
418 104 597 99 576 136 608 134 116 225 190 233 188 5 -1 36 -35 69 -74z m324
-1468 c61 -35 93 -94 93 -173 0 -68 -13 -102 -57 -143 -121 -115 -325 -42
-341 122 -9 99 52 191 145 216 59 16 105 9 160 -22z m-859 -114 c147 -174 184
-221 179 -234 -3 -7 -34 -24 -69 -37 l-63 -24 -885 0 -885 0 -66 32 c-36 18
-74 42 -84 53 -23 25 -36 10 155 169 l145 121 755 -2 754 -3 64 -75z"/>
</g>
</svg>
